<?xml version="1.0" encoding="UTF-8"?>
<svg xmlns="http://www.w3.org/2000/svg" xmlns:xlink="http://www.w3.org/1999/xlink" width="123px" height="129px" viewBox="0 0 123 129" version="1.1">
<g id="surface1">
<path style=" stroke:none;fill-rule:nonzero;fill:rgb(14.901961%,14.509805%,14.509805%);fill-opacity:1;" d="M 23.503906 69.835938 L 20.84375 69.835938 L 20.84375 78.203125 L 23.445312 78.144531 C 26.894531 78.085938 28.765625 76.714844 28.765625 73.890625 C 28.765625 71.296875 26.925781 69.839844 23.503906 69.839844 M 23.328125 79.890625 L 20.84375 79.917969 L 20.84375 86.332031 L 18.972656 86.332031 L 18.972656 68.117188 L 23.5625 68.117188 C 28.386719 68.117188 30.695312 70.449219 30.695312 73.796875 C 30.695312 77.792969 27.859375 79.832031 23.328125 79.890625 "/>
<path style=" stroke:none;fill-rule:nonzero;fill:rgb(14.901961%,14.509805%,14.509805%);fill-opacity:1;" d="M 39.121094 86.183594 L 38.039062 89.070312 C 36.8125 92.332031 35.523438 93.265625 33.710938 93.265625 C 32.6875 93.265625 31.929688 93.003906 31.109375 92.65625 L 31.667969 90.992188 C 32.3125 91.34375 32.984375 91.574219 33.714844 91.574219 C 34.738281 91.574219 35.5 91.019531 36.464844 88.488281 L 37.371094 86.125 L 32.132812 72.984375 L 34.09375 72.984375 L 38.304688 84 L 42.429688 72.984375 L 44.328125 72.984375 L 39.125 86.183594 Z M 39.121094 86.183594 "/>
<path style=" stroke:none;fill-rule:nonzero;fill:rgb(14.901961%,14.509805%,14.509805%);fill-opacity:1;" d="M 50.5 69.867188 L 50.5 86.332031 L 48.628906 86.332031 L 48.628906 69.867188 L 42.195312 69.867188 L 42.195312 68.117188 L 56.933594 68.117188 L 56.933594 69.867188 Z M 50.5 69.867188 "/>
<path style=" stroke:none;fill-rule:nonzero;fill:rgb(14.901961%,14.509805%,14.509805%);fill-opacity:1;" d="M 62.28125 74.238281 C 59.445312 74.238281 57.570312 76.480469 57.570312 79.628906 C 57.570312 82.777344 59.472656 85.078125 62.308594 85.078125 C 65.148438 85.078125 67.019531 82.835938 67.019531 79.6875 C 67.019531 76.539062 65.117188 74.238281 62.28125 74.238281 M 62.21875 86.710938 C 58.507812 86.710938 55.757812 83.972656 55.757812 79.6875 C 55.757812 75.402344 58.625 72.605469 62.367188 72.605469 C 66.109375 72.605469 68.800781 75.34375 68.800781 79.628906 C 68.800781 83.914062 65.933594 86.710938 62.21875 86.710938 "/>
<path style=" stroke:none;fill-rule:nonzero;fill:rgb(14.901961%,14.509805%,14.509805%);fill-opacity:1;" d="M 73.363281 86.332031 L 71.550781 86.332031 L 71.550781 72.984375 L 73.363281 72.605469 L 73.363281 75.460938 C 74.238281 73.742188 75.554688 72.605469 77.308594 72.605469 C 78.1875 72.605469 79.035156 72.867188 79.648438 73.214844 L 79.179688 74.90625 C 78.59375 74.558594 77.894531 74.324219 77.132812 74.324219 C 75.730469 74.324219 74.414062 75.375 73.359375 77.761719 L 73.359375 86.332031 Z M 73.363281 86.332031 "/>
<path style=" stroke:none;fill-rule:nonzero;fill:rgb(14.901961%,14.509805%,14.509805%);fill-opacity:1;" d="M 86.796875 86.710938 C 82.761719 86.710938 80.246094 83.824219 80.246094 79.6875 C 80.246094 75.550781 83.023438 72.605469 86.824219 72.605469 C 88.460938 72.605469 89.863281 73.015625 91.003906 73.742188 L 90.535156 75.375 C 89.511719 74.707031 88.226562 74.296875 86.824219 74.296875 C 83.925781 74.296875 82.113281 76.453125 82.113281 79.628906 C 82.113281 82.804688 84.015625 85.019531 86.851562 85.019531 C 88.195312 85.019531 89.542969 84.582031 90.566406 83.914062 L 90.945312 85.574219 C 89.804688 86.273438 88.34375 86.710938 86.792969 86.710938 "/>
<path style=" stroke:none;fill-rule:nonzero;fill:rgb(14.901961%,14.509805%,14.509805%);fill-opacity:1;" d="M 102.214844 86.332031 L 102.214844 77.703125 C 102.214844 75.375 101.277344 74.324219 99.347656 74.324219 C 97.796875 74.324219 96.308594 75.113281 95.195312 76.21875 L 95.195312 86.332031 L 93.382812 86.332031 L 93.382812 66.6875 L 95.195312 66.308594 L 95.195312 74.730469 C 96.601562 73.332031 98.355469 72.605469 99.847656 72.605469 C 102.449219 72.605469 104.027344 74.265625 104.027344 77.179688 L 104.027344 86.332031 Z M 102.214844 86.332031 "/>
<path style=" stroke:none;fill-rule:nonzero;fill:rgb(87.058824%,20.392157%,7.058824%);fill-opacity:1;" d="M 48.355469 97.136719 L 48.355469 88.910156 L 53.675781 88.910156 L 53.675781 89.574219 L 49.136719 89.574219 L 49.136719 92.542969 L 53.261719 92.542969 L 53.261719 93.207031 L 49.136719 93.207031 L 49.136719 97.136719 Z M 48.355469 97.136719 "/>
<path style=" stroke:none;fill-rule:nonzero;fill:rgb(87.058824%,20.392157%,7.058824%);fill-opacity:1;" d="M 57.070312 97.296875 C 56.6875 97.289062 56.332031 97.21875 56 97.089844 C 55.667969 96.960938 55.375 96.765625 55.128906 96.507812 C 54.878906 96.25 54.679688 95.925781 54.535156 95.535156 C 54.390625 95.148438 54.316406 94.695312 54.316406 94.179688 C 54.316406 93.742188 54.375 93.339844 54.488281 92.960938 C 54.605469 92.582031 54.777344 92.253906 55.007812 91.972656 C 55.234375 91.691406 55.523438 91.464844 55.867188 91.304688 C 56.210938 91.140625 56.609375 91.058594 57.070312 91.058594 C 57.527344 91.058594 57.941406 91.140625 58.285156 91.304688 C 58.628906 91.46875 58.914062 91.6875 59.144531 91.964844 C 59.375 92.246094 59.542969 92.574219 59.65625 92.957031 C 59.765625 93.335938 59.820312 93.742188 59.820312 94.179688 C 59.820312 94.648438 59.757812 95.078125 59.628906 95.457031 C 59.496094 95.839844 59.3125 96.167969 59.070312 96.441406 C 58.828125 96.714844 58.539062 96.925781 58.199219 97.074219 C 57.859375 97.222656 57.484375 97.296875 57.070312 97.296875 Z M 59.085938 94.175781 C 59.085938 93.824219 59.050781 93.5 58.972656 93.195312 C 58.898438 92.890625 58.777344 92.625 58.617188 92.398438 C 58.457031 92.175781 58.253906 91.996094 58 91.867188 C 57.746094 91.738281 57.4375 91.675781 57.070312 91.675781 C 56.707031 91.675781 56.40625 91.746094 56.148438 91.886719 C 55.894531 92.027344 55.683594 92.214844 55.523438 92.445312 C 55.363281 92.675781 55.246094 92.945312 55.171875 93.246094 C 55.09375 93.546875 55.054688 93.855469 55.054688 94.175781 C 55.054688 94.542969 55.101562 94.878906 55.1875 95.1875 C 55.277344 95.496094 55.40625 95.761719 55.574219 95.984375 C 55.742188 96.203125 55.949219 96.375 56.203125 96.496094 C 56.457031 96.621094 56.746094 96.679688 57.074219 96.679688 C 57.433594 96.679688 57.742188 96.609375 57.996094 96.46875 C 58.253906 96.328125 58.460938 96.140625 58.621094 95.902344 C 58.78125 95.667969 58.902344 95.398438 58.976562 95.105469 C 59.050781 94.804688 59.089844 94.5 59.089844 94.179688 Z M 59.085938 94.175781 "/>
<path style=" stroke:none;fill-rule:nonzero;fill:rgb(87.058824%,20.392157%,7.058824%);fill-opacity:1;" d="M 65.105469 91.214844 L 65.792969 91.214844 L 65.792969 97.132812 L 65.105469 97.132812 L 65.105469 96.3125 C 65.015625 96.417969 64.910156 96.527344 64.796875 96.640625 C 64.683594 96.757812 64.550781 96.859375 64.398438 96.957031 C 64.25 97.050781 64.074219 97.132812 63.878906 97.195312 C 63.679688 97.261719 63.449219 97.292969 63.191406 97.292969 C 62.792969 97.292969 62.460938 97.238281 62.191406 97.128906 C 61.925781 97.015625 61.707031 96.863281 61.546875 96.664062 C 61.378906 96.46875 61.261719 96.238281 61.191406 95.972656 C 61.117188 95.710938 61.082031 95.425781 61.082031 95.113281 L 61.082031 91.214844 L 61.769531 91.214844 L 61.769531 95.101562 C 61.769531 95.609375 61.890625 96.003906 62.125 96.273438 C 62.359375 96.542969 62.753906 96.679688 63.292969 96.679688 C 63.574219 96.679688 63.832031 96.621094 64.054688 96.511719 C 64.28125 96.402344 64.46875 96.246094 64.625 96.050781 C 64.777344 95.851562 64.894531 95.617188 64.980469 95.339844 C 65.0625 95.066406 65.105469 94.765625 65.105469 94.4375 Z M 65.105469 91.214844 "/>
<path style=" stroke:none;fill-rule:nonzero;fill:rgb(87.058824%,20.392157%,7.058824%);fill-opacity:1;" d="M 68.144531 97.136719 L 67.457031 97.136719 L 67.457031 91.21875 L 68.144531 91.21875 L 68.144531 92.039062 C 68.417969 91.75 68.703125 91.515625 68.996094 91.332031 C 69.289062 91.148438 69.644531 91.058594 70.058594 91.058594 C 70.421875 91.058594 70.761719 91.121094 71.078125 91.246094 C 71.390625 91.371094 71.652344 91.589844 71.867188 91.902344 C 72.011719 92.117188 72.097656 92.335938 72.125 92.558594 C 72.152344 92.785156 72.164062 93.019531 72.164062 93.261719 L 72.164062 97.132812 L 71.476562 97.132812 L 71.476562 93.273438 C 71.476562 92.738281 71.359375 92.339844 71.121094 92.074219 C 70.882812 91.808594 70.492188 91.675781 69.941406 91.675781 C 69.726562 91.675781 69.53125 91.707031 69.355469 91.769531 C 69.179688 91.835938 69.023438 91.921875 68.882812 92.027344 C 68.738281 92.132812 68.617188 92.257812 68.519531 92.394531 C 68.421875 92.53125 68.34375 92.675781 68.289062 92.828125 C 68.222656 93.019531 68.179688 93.199219 68.164062 93.375 C 68.148438 93.550781 68.140625 93.742188 68.140625 93.945312 L 68.140625 97.132812 Z M 68.144531 97.136719 "/>
<path style=" stroke:none;fill-rule:nonzero;fill:rgb(87.058824%,20.392157%,7.058824%);fill-opacity:1;" d="M 78.417969 88.910156 L 79.105469 88.910156 L 79.105469 97.132812 L 78.417969 97.132812 L 78.417969 96.09375 L 78.394531 96.09375 C 78.292969 96.292969 78.164062 96.464844 78.007812 96.613281 C 77.851562 96.761719 77.679688 96.886719 77.492188 96.984375 C 77.304688 97.085938 77.113281 97.160156 76.914062 97.214844 C 76.714844 97.269531 76.519531 97.296875 76.328125 97.296875 C 75.847656 97.296875 75.4375 97.214844 75.101562 97.054688 C 74.765625 96.894531 74.488281 96.675781 74.269531 96.398438 C 74.054688 96.121094 73.894531 95.792969 73.796875 95.410156 C 73.695312 95.03125 73.648438 94.621094 73.648438 94.1875 C 73.648438 93.777344 73.699219 93.378906 73.808594 93 C 73.914062 92.621094 74.078125 92.285156 74.292969 92 C 74.511719 91.714844 74.789062 91.484375 75.121094 91.3125 C 75.453125 91.140625 75.84375 91.058594 76.296875 91.058594 C 76.714844 91.058594 77.117188 91.152344 77.503906 91.335938 C 77.890625 91.523438 78.195312 91.800781 78.417969 92.164062 Z M 78.417969 94.152344 C 78.417969 93.816406 78.371094 93.5 78.28125 93.199219 C 78.1875 92.898438 78.058594 92.632812 77.882812 92.410156 C 77.710938 92.1875 77.5 92.007812 77.253906 91.875 C 77.003906 91.742188 76.722656 91.675781 76.410156 91.675781 C 76.050781 91.675781 75.742188 91.746094 75.480469 91.886719 C 75.222656 92.027344 75.007812 92.21875 74.839844 92.464844 C 74.671875 92.707031 74.546875 92.992188 74.472656 93.3125 C 74.398438 93.636719 74.367188 93.988281 74.378906 94.359375 C 74.378906 94.730469 74.429688 95.0625 74.535156 95.347656 C 74.640625 95.632812 74.78125 95.875 74.964844 96.074219 C 75.148438 96.269531 75.363281 96.421875 75.605469 96.523438 C 75.851562 96.628906 76.117188 96.679688 76.410156 96.679688 C 76.730469 96.679688 77.015625 96.613281 77.269531 96.484375 C 77.523438 96.355469 77.730469 96.179688 77.898438 95.953125 C 78.066406 95.730469 78.195312 95.460938 78.285156 95.152344 C 78.371094 94.84375 78.417969 94.511719 78.417969 94.152344 Z M 78.417969 94.152344 "/>
<path style=" stroke:none;fill-rule:nonzero;fill:rgb(87.058824%,20.392157%,7.058824%);fill-opacity:1;" d="M 83.5625 93.683594 C 83.695312 93.667969 83.847656 93.648438 84.027344 93.617188 C 84.207031 93.585938 84.355469 93.542969 84.46875 93.488281 C 84.582031 93.4375 84.652344 93.347656 84.679688 93.222656 C 84.707031 93.097656 84.722656 92.980469 84.722656 92.875 C 84.722656 92.523438 84.609375 92.234375 84.382812 92.011719 C 84.15625 91.789062 83.777344 91.675781 83.242188 91.675781 C 83.003906 91.675781 82.785156 91.695312 82.589844 91.738281 C 82.390625 91.777344 82.214844 91.851562 82.066406 91.953125 C 81.917969 92.058594 81.796875 92.195312 81.699219 92.363281 C 81.605469 92.535156 81.542969 92.75 81.511719 93.011719 L 80.808594 93.011719 C 80.832031 92.660156 80.914062 92.359375 81.050781 92.113281 C 81.1875 91.867188 81.367188 91.664062 81.585938 91.507812 C 81.800781 91.351562 82.054688 91.238281 82.339844 91.164062 C 82.628906 91.09375 82.929688 91.058594 83.25 91.058594 C 83.550781 91.058594 83.832031 91.089844 84.09375 91.152344 C 84.359375 91.21875 84.585938 91.320312 84.78125 91.464844 C 84.976562 91.605469 85.128906 91.792969 85.242188 92.027344 C 85.351562 92.265625 85.40625 92.554688 85.40625 92.898438 L 85.40625 96.121094 C 85.40625 96.386719 85.457031 96.554688 85.550781 96.628906 C 85.648438 96.699219 85.839844 96.683594 86.132812 96.578125 L 86.132812 97.113281 C 86.078125 97.128906 86 97.152344 85.894531 97.183594 C 85.792969 97.210938 85.691406 97.226562 85.59375 97.226562 C 85.484375 97.226562 85.382812 97.214844 85.28125 97.195312 C 85.167969 97.179688 85.074219 97.144531 85.007812 97.085938 C 84.9375 97.027344 84.882812 96.960938 84.839844 96.878906 C 84.796875 96.796875 84.769531 96.710938 84.753906 96.617188 C 84.738281 96.519531 84.730469 96.421875 84.730469 96.3125 C 84.441406 96.632812 84.109375 96.878906 83.734375 97.042969 C 83.359375 97.210938 82.953125 97.296875 82.519531 97.296875 C 82.257812 97.296875 82.007812 97.261719 81.769531 97.191406 C 81.527344 97.121094 81.316406 97.015625 81.132812 96.871094 C 80.949219 96.726562 80.804688 96.550781 80.695312 96.339844 C 80.589844 96.132812 80.535156 95.882812 80.535156 95.59375 C 80.535156 94.585938 81.226562 93.992188 82.613281 93.8125 L 83.5625 93.6875 Z M 84.722656 94.027344 C 84.433594 94.148438 84.136719 94.230469 83.839844 94.269531 C 83.539062 94.304688 83.242188 94.335938 82.945312 94.359375 C 82.417969 94.398438 82.007812 94.515625 81.710938 94.714844 C 81.417969 94.910156 81.269531 95.210938 81.269531 95.617188 C 81.269531 95.800781 81.308594 95.957031 81.378906 96.089844 C 81.453125 96.222656 81.546875 96.335938 81.667969 96.421875 C 81.785156 96.507812 81.921875 96.574219 82.078125 96.617188 C 82.238281 96.65625 82.394531 96.679688 82.554688 96.679688 C 82.832031 96.679688 83.097656 96.644531 83.359375 96.578125 C 83.617188 96.507812 83.847656 96.402344 84.050781 96.261719 C 84.253906 96.121094 84.414062 95.941406 84.539062 95.726562 C 84.660156 95.507812 84.722656 95.253906 84.722656 94.953125 Z M 84.722656 94.027344 "/>
<path style=" stroke:none;fill-rule:nonzero;fill:rgb(87.058824%,20.392157%,7.058824%);fill-opacity:1;" d="M 89.296875 97.15625 C 89.210938 97.171875 89.101562 97.199219 88.964844 97.238281 C 88.828125 97.277344 88.671875 97.296875 88.503906 97.296875 C 88.160156 97.296875 87.898438 97.210938 87.71875 97.039062 C 87.539062 96.867188 87.449219 96.558594 87.449219 96.121094 L 87.449219 91.789062 L 86.613281 91.789062 L 86.613281 91.21875 L 87.449219 91.21875 L 87.449219 89.574219 L 88.136719 89.574219 L 88.136719 91.21875 L 89.25 91.21875 L 89.25 91.789062 L 88.136719 91.789062 L 88.136719 95.84375 C 88.136719 95.988281 88.140625 96.113281 88.148438 96.222656 C 88.15625 96.328125 88.179688 96.414062 88.21875 96.484375 C 88.257812 96.554688 88.316406 96.601562 88.398438 96.632812 C 88.476562 96.664062 88.589844 96.679688 88.734375 96.679688 C 88.828125 96.679688 88.921875 96.671875 89.015625 96.65625 C 89.113281 96.640625 89.207031 96.621094 89.296875 96.597656 Z M 89.296875 97.15625 "/>
<path style=" stroke:none;fill-rule:nonzero;fill:rgb(87.058824%,20.392157%,7.058824%);fill-opacity:1;" d="M 90.464844 89.925781 L 90.464844 88.910156 L 91.222656 88.910156 L 91.222656 89.925781 Z M 90.5 97.136719 L 90.5 91.21875 L 91.1875 91.21875 L 91.1875 97.136719 Z M 90.5 97.136719 "/>
<path style=" stroke:none;fill-rule:nonzero;fill:rgb(87.058824%,20.392157%,7.058824%);fill-opacity:1;" d="M 95.304688 97.296875 C 94.917969 97.289062 94.5625 97.21875 94.230469 97.089844 C 93.898438 96.960938 93.609375 96.765625 93.359375 96.507812 C 93.109375 96.25 92.914062 95.925781 92.769531 95.535156 C 92.625 95.148438 92.550781 94.695312 92.550781 94.179688 C 92.550781 93.742188 92.609375 93.339844 92.722656 92.960938 C 92.835938 92.582031 93.011719 92.253906 93.238281 91.972656 C 93.46875 91.691406 93.757812 91.464844 94.097656 91.304688 C 94.441406 91.140625 94.84375 91.058594 95.304688 91.058594 C 95.761719 91.058594 96.175781 91.140625 96.519531 91.304688 C 96.859375 91.46875 97.148438 91.6875 97.378906 91.964844 C 97.605469 92.246094 97.777344 92.574219 97.886719 92.957031 C 98 93.335938 98.054688 93.742188 98.054688 94.179688 C 98.054688 94.648438 97.992188 95.078125 97.859375 95.457031 C 97.730469 95.839844 97.542969 96.167969 97.304688 96.441406 C 97.0625 96.714844 96.773438 96.925781 96.433594 97.074219 C 96.09375 97.222656 95.714844 97.296875 95.304688 97.296875 Z M 97.320312 94.175781 C 97.320312 93.824219 97.285156 93.5 97.207031 93.195312 C 97.132812 92.890625 97.011719 92.625 96.851562 92.398438 C 96.691406 92.175781 96.488281 91.996094 96.234375 91.867188 C 95.980469 91.738281 95.671875 91.675781 95.304688 91.675781 C 94.941406 91.675781 94.640625 91.746094 94.382812 91.886719 C 94.128906 92.027344 93.917969 92.214844 93.757812 92.445312 C 93.597656 92.675781 93.480469 92.945312 93.40625 93.246094 C 93.328125 93.546875 93.289062 93.855469 93.289062 94.175781 C 93.289062 94.542969 93.335938 94.878906 93.421875 95.1875 C 93.511719 95.496094 93.640625 95.761719 93.808594 95.984375 C 93.976562 96.203125 94.183594 96.375 94.4375 96.496094 C 94.691406 96.621094 94.980469 96.679688 95.308594 96.679688 C 95.667969 96.679688 95.976562 96.609375 96.230469 96.46875 C 96.488281 96.328125 96.695312 96.140625 96.855469 95.902344 C 97.015625 95.667969 97.136719 95.398438 97.210938 95.105469 C 97.285156 94.804688 97.324219 94.5 97.324219 94.179688 Z M 97.320312 94.175781 "/>
<path style=" stroke:none;fill-rule:nonzero;fill:rgb(87.058824%,20.392157%,7.058824%);fill-opacity:1;" d="M 100.003906 97.136719 L 99.316406 97.136719 L 99.316406 91.21875 L 100.003906 91.21875 L 100.003906 92.039062 C 100.28125 91.75 100.5625 91.515625 100.859375 91.332031 C 101.152344 91.148438 101.503906 91.058594 101.917969 91.058594 C 102.285156 91.058594 102.625 91.121094 102.9375 91.246094 C 103.25 91.371094 103.515625 91.589844 103.726562 91.902344 C 103.875 92.117188 103.960938 92.335938 103.984375 92.558594 C 104.011719 92.785156 104.027344 93.019531 104.027344 93.261719 L 104.027344 97.132812 L 103.335938 97.132812 L 103.335938 93.273438 C 103.335938 92.738281 103.21875 92.339844 102.980469 92.074219 C 102.746094 91.808594 102.351562 91.675781 101.800781 91.675781 C 101.585938 91.675781 101.394531 91.707031 101.21875 91.769531 C 101.039062 91.835938 100.882812 91.921875 100.742188 92.027344 C 100.601562 92.132812 100.480469 92.257812 100.378906 92.394531 C 100.28125 92.53125 100.203125 92.675781 100.152344 92.828125 C 100.082031 93.019531 100.039062 93.199219 100.027344 93.375 C 100.011719 93.550781 100.003906 93.742188 100.003906 93.945312 Z M 100.003906 97.136719 "/>
<path style=" stroke:none;fill-rule:nonzero;fill:rgb(87.058824%,20.392157%,7.058824%);fill-opacity:1;" d="M 70.558594 40.734375 L 68.292969 42.992188 C 72.046875 46.730469 72.046875 52.792969 68.292969 56.535156 C 64.542969 60.273438 58.457031 60.273438 54.707031 56.535156 C 50.953125 52.792969 50.953125 46.730469 54.707031 42.992188 L 54.703125 42.992188 C 54.703125 42.992188 60.691406 37.023438 60.691406 37.023438 L 61.5 36.21875 C 61.5 36.21875 61.5 31.707031 61.5 31.707031 L 52.441406 40.734375 C 47.4375 45.722656 47.4375 53.804688 52.441406 58.792969 C 57.445312 63.777344 65.558594 63.777344 70.558594 58.792969 C 75.5625 53.804688 75.5625 45.71875 70.558594 40.734375 "/>
<path style=" stroke:none;fill-rule:nonzero;fill:rgb(87.058824%,20.392157%,7.058824%);fill-opacity:1;" d="M 67.199219 39.652344 C 67.851562 39.003906 67.851562 37.953125 67.199219 37.304688 C 66.550781 36.65625 65.496094 36.65625 64.84375 37.304688 C 64.195312 37.953125 64.195312 39.003906 64.84375 39.652344 C 65.496094 40.300781 66.550781 40.300781 67.199219 39.652344 "/>
</g>
</svg>
